<?xml version="1.0" encoding="utf-8"?>
<svg version="1.1" xmlns="http://www.w3.org/2000/svg" xmlns:xlink="http://www.w3.org/1999/xlink" x="0px" y="0px"
	 viewBox="0 0 1122 1122" style="enable-background:new 0 0 1122 1122;" xml:space="preserve">
<g id="BG">
	<linearGradient id="SVGID_1_" gradientUnits="userSpaceOnUse" x1="0" y1="561" x2="1122" y2="561">
		<stop  offset="0" style="stop-color:#91C5C8"/>
		<stop  offset="1" style="stop-color:#78BCE3"/>
	</linearGradient>
	<rect style="fill:url(#SVGID_1_);" width="1122" height="1122"/>
</g>
<g id="Alphabet_1_">
	<g>
		<g>
			<linearGradient id="SVGID_00000001646632936840311230000008162938878858731706_" gradientUnits="userSpaceOnUse" x1="260.431" y1="757.1342" x2="261.4063" y2="757.1342">
				<stop  offset="0" style="stop-color:#F5DB3A"/>
				<stop  offset="1" style="stop-color:#DD8D79"/>
			</linearGradient>
			<path style="fill:url(#SVGID_00000001646632936840311230000008162938878858731706_);" d="M260.521,756.64
				c-0.044,0.006-0.09,0.012-0.09,0.012l0.975,0.976C261.107,757.303,260.818,756.968,260.521,756.64z"/>
			<linearGradient id="SVGID_00000163790671235550242900000011189318702626025639_" gradientUnits="userSpaceOnUse" x1="274.1485" y1="637.609" x2="894.3267" y2="637.609">
				<stop  offset="0" style="stop-color:#F5DB3A"/>
				<stop  offset="1" style="stop-color:#DD8D79"/>
			</linearGradient>
			<path style="fill:url(#SVGID_00000163790671235550242900000011189318702626025639_);" d="M886.216,490.04
				c-9.577-37.159-25.782-69.869-48.582-97.611c-6.486-7.888-13.453-12.81-20.868-22.516h0.579l-71.366-71.231
				c0,0-0.045,0.233-0.127,0.727c5.171,5.211,10.114,10.632,14.8,16.331c22.801,27.743,39.005,60.169,48.582,97.328
				c9.58,37.158,10.677,76.733,3.271,118.739c-4.749,26.935-12.525,52.781-23.304,77.545
				c-10.794,24.776-24.126,48.062-40.011,69.872c-15.889,21.81-33.89,41.878-54.006,60.18c-20.13,18.314-41.61,34.784-64.443,48.239
				l31.091,112.862H539.908l-19.373-69.242c-21.855,4.847-44.346,6.981-67.494,6.981c-41.993,0-80.138-8.222-114.422-24.378
				c-23.883-11.251-46.147-25.385-64.47-42.251l60.067,61.189v-0.056c21.03,24.04,49.158,43.363,80.133,57.955
				c34.284,16.155,73.056,24.233,115.048,24.233c23.148,0,45.952-2.319,67.807-7.167l19.685,68.766h121.924l-31.091-112.386
				c22.833-13.455,44.314-29.397,64.443-47.711c20.116-18.302,38.119-38.396,54.006-60.207c15.887-21.81,29.218-45.11,40.012-69.886
				c10.778-24.764,18.554-50.619,23.303-77.554C896.893,566.786,895.796,527.198,886.216,490.04z"/>
		</g>
		<linearGradient id="SVGID_00000043434486048746836110000005407259191712440741_" gradientUnits="userSpaceOnUse" x1="539.6411" y1="937.9131" x2="738.2812" y2="937.9131">
			<stop  offset="0" style="stop-color:#D15B30"/>
			<stop  offset="1" style="stop-color:#DE902F"/>
		</linearGradient>
		<polygon style="fill:url(#SVGID_00000043434486048746836110000005407259191712440741_);" points="539.641,899.291 
			616.889,976.535 738.281,976.535 661.833,899.741 		"/>
		<linearGradient id="SVGID_00000098919525445450644730000003411672455125960340_" gradientUnits="userSpaceOnUse" x1="630.7406" y1="881.5365" x2="738.2812" y2="881.5365">
			<stop  offset="0" style="stop-color:#F5DB3A"/>
			<stop  offset="1" style="stop-color:#DD8D79"/>
		</linearGradient>
		<polygon style="fill:url(#SVGID_00000098919525445450644730000003411672455125960340_);" points="630.741,787.064 
			707.722,864.045 738.281,976.009 661.833,899.346 		"/>
		<path style="fill:#F5DB3A;" d="M561.086,225.651c41.941,0,80.049,8.079,114.308,24.234c34.259,16.156,62.802,38.105,85.604,65.835
			c22.801,27.742,39.005,60.179,48.583,97.338c9.58,37.158,10.677,76.739,3.27,118.744c-4.749,26.935-12.525,52.784-23.303,77.548
			c-10.793,24.776-24.126,48.063-40.012,69.873c-15.888,21.81-33.89,41.879-54.006,60.181
			c-20.129,18.314-41.61,34.205-64.444,47.659l31.092,112.283H540.252l-19.373-68.663c-21.856,4.847-44.346,7.27-67.494,7.27
			c-41.993,0-80.138-8.077-114.422-24.233c-34.297-16.156-62.865-38.093-85.692-65.835c-22.827-27.73-39.042-60.181-48.633-97.339
			c-9.604-37.159-10.689-76.74-3.283-118.745c7.407-42.005,22.451-81.586,45.133-118.744c22.682-37.159,50.327-69.596,82.909-97.338
			c32.581-27.73,68.864-49.679,108.82-65.835C478.177,233.73,519.132,225.651,561.086,225.651z M594.888,656.202l4.267,16.964
			c23.66-17.229,43.612-37.966,59.837-62.2c16.214-24.233,26.848-50.612,31.882-79.163c4.462-25.306,3.818-49.135-1.936-71.489
			c-5.753-22.34-15.398-41.727-28.922-58.161c-13.537-16.42-30.621-29.484-51.253-39.177c-20.643-9.694-43.619-14.54-68.925-14.54
			c-25.318,0-50.002,4.846-74.048,14.515c-24.057,9.668-45.882,22.706-65.457,39.09c-19.587,16.383-36.189,35.732-49.814,58.035
			c-13.627,22.302-22.667,46.082-27.117,71.325c-4.453,25.255-3.813,49.035,1.924,71.338c5.735,22.302,15.466,41.777,29.189,58.438
			c13.723,16.661,30.877,29.825,51.474,39.493c20.598,9.668,43.525,14.503,68.78,14.503c2.689,0,5.134-0.127,7.328-0.405
			c2.194-0.264,4.641-0.404,7.33-0.404l-16.365-58.161H594.888z"/>
		<linearGradient id="SVGID_00000008136026569805027470000005386963387217060483_" gradientUnits="userSpaceOnUse" x1="320.1377" y1="525.4523" x2="681.1551" y2="525.4523">
			<stop  offset="0" style="stop-color:#E9A736"/>
			<stop  offset="0.6429" style="stop-color:#D15B30"/>
			<stop  offset="0.7551" style="stop-color:#D26037"/>
			<stop  offset="1" style="stop-color:#D46A45"/>
		</linearGradient>
		<path style="fill:url(#SVGID_00000008136026569805027470000005386963387217060483_);" d="M400.039,608.381
			c4.45-25.243,13.49-49.022,27.117-71.325c13.624-22.302,30.227-41.652,49.814-58.034c19.574-16.384,41.4-29.422,65.457-39.09
			c24.045-9.668,48.729-14.515,74.048-14.515c23.586,0,45.144,4.214,64.68,12.634c-5.515-13.217-12.67-25.189-21.483-35.898
			c-13.537-16.42-30.621-29.484-51.253-39.178c-20.643-9.693-43.618-14.54-68.925-14.54c-25.318,0-50.002,4.846-74.048,14.515
			c-24.058,9.668-45.883,22.706-65.457,39.09c-19.588,16.383-36.189,35.732-49.814,58.035
			c-13.627,22.302-22.667,46.082-27.117,71.325c-4.453,25.256-3.813,49.035,1.924,71.338c5.735,22.302,15.466,41.777,29.189,58.438
			c13.723,16.661,30.876,29.825,51.474,39.493c1.323,0.621,2.656,1.22,3.997,1.801c-3.062-7.229-5.635-14.802-7.678-22.751
			C396.226,657.416,395.586,633.636,400.039,608.381z"/>
	</g>
</g>
</svg> 